<?xml version="1.0" standalone="no"?><!DOCTYPE svg PUBLIC "-//W3C//DTD SVG 1.1//EN" "http://www.w3.org/Graphics/SVG/1.1/DTD/svg11.dtd"><svg t="1635147494675" class="icon" viewBox="0 0 1254 1024" version="1.1" xmlns="http://www.w3.org/2000/svg" p-id="17081" xmlns:xlink="http://www.w3.org/1999/xlink" width="244.921875" height="200"><defs><style type="text/css"></style></defs><path d="M147.283 950.878c8.264 0 13.759 5.51 13.759 13.759 0 8.264-5.495 13.759-13.76 13.759H13.76C5.51 978.396 0 972.9 0 964.636c0-8.249 5.51-13.758 13.76-13.758h133.523z m1025.471-104.621c8.264 0 13.774 5.51 13.774 13.773 0 8.25-5.51 13.76-13.774 13.76H940.119v35.782c0 38.551-30.259 68.824-68.796 68.824h-41.306c0 8.264-4.125 16.528-9.634 23.408-13.76 13.759-34.413 13.759-48.172 0l-22.037-23.408H216.107c-8.264 0-13.759-5.495-13.759-13.76 0-8.249 5.495-13.758 13.76-13.758h60.574a70.771 70.771 0 0 1-13.774-41.306v-688.23c0-38.536 30.288-68.824 68.825-68.824h44.046v-35.782c0-38.551 30.287-68.824 68.824-68.824h540.96c38.538 0 68.825 30.287 68.825 68.824v688.243c0 15.13-5.51 30.273-13.773 41.278h132.139z m-217.492 0h28.917c23.408 0 41.292-17.884 41.292-41.292V116.722c0-23.394-17.884-41.278-41.292-41.278H443.22c-23.393 0-41.292 17.884-41.292 41.292v35.782H872.68c38.551 0 68.839 30.288 68.839 68.825V846.27h13.759z m-323.44-34.412a119.62 119.62 0 0 0 0-169.307c-22.023-22.008-52.31-34.412-83.968-34.412-31.657 0-61.944 12.404-83.968 34.412a119.635 119.635 0 0 0 0 169.32 118.74 118.74 0 0 0 83.968 34.399c30.288 0 60.575-12.39 83.968-34.412zM487.28 685.215c2.754 1.37 4.139 5.51 2.754 9.634-9.634 16.514-11.004 38.537-4.124 56.435 1.37 4.14 0 6.88-4.125 9.635h-2.755a7.557 7.557 0 0 1-6.88-4.125c-8.264-22.024-6.879-48.172 4.125-68.825a10.702 10.702 0 0 1 11.005-2.754zM914 909.572v-688.23c0-23.407-17.885-41.291-41.292-41.291H330.363c-23.408 0-41.307 17.884-41.307 41.292v688.243c0 23.393 17.899 41.292 41.307 41.292h392.293l-38.552-38.552a34.672 34.672 0 0 1-8.25-35.768l-34.412-35.796a145.336 145.336 0 0 1-93.602 34.412c-39.922 0-75.718-15.144-104.621-42.676a146.23 146.23 0 0 1 0-207.844c27.547-27.547 64.7-42.69 104.621-42.69 39.907 0 75.718 15.143 104.607 42.69 53.68 53.681 56.435 140.39 9.634 198.21l35.797 35.782c12.389-4.125 26.148-2.74 35.782 8.264l85.338 85.338h53.695c22.009-1.37 41.292-19.269 41.292-42.676zM415.7 321.824c-8.249 0-13.758-5.509-13.758-13.759 0-8.264 5.509-13.773 13.759-13.773h240.885c8.264 0 13.773 5.51 13.773 13.773 0 8.25-5.509 13.76-13.773 13.76h-240.9zM736.43 382.4c8.263 0 13.758 5.495 13.758 13.76 0 8.249-5.495 13.758-13.759 13.758H419.84c-8.279 0-13.774-5.51-13.774-13.759 0-8.264 5.495-13.773 13.76-13.773H736.4z m-154.192 88.064c8.264 0 13.773 5.51 13.773 13.774 0 8.25-5.51 13.759-13.759 13.759H412.917c-8.25 0-13.744-5.51-13.744-13.76 0-8.263 5.494-13.773 13.759-13.773h169.306zM83.982 195.195c0 15.143-12.403 27.518-27.547 27.518a27.605 27.605 0 0 1-27.518-27.518c0-15.144 12.404-27.547 27.533-27.547 15.143 0 27.532 12.403 27.532 27.547z m27.519 0c0-30.288-24.764-55.066-55.051-55.066a55.224 55.224 0 0 0-55.065 55.066c0 30.287 24.777 55.05 55.065 55.05s55.05-24.778 55.05-55.05z m1083.29 64.685c0-8.25 5.51-13.76 13.774-13.76 8.25 0 13.76 5.51 13.76 13.76 0 8.264-5.51 13.773-13.76 13.773-8.264 0-13.773-5.51-13.773-13.773z m-27.532 0c0 23.407 17.898 41.291 41.306 41.291 23.394 0 41.292-17.884 41.292-41.291 0-23.394-17.884-41.292-41.292-41.292s-41.306 17.884-41.306 41.292zM202.349 75.444c0 8.25 5.494 13.76 13.758 13.76s13.76-5.51 13.76-13.76V58.916h16.513c8.264 0 13.774-5.51 13.774-13.759 0-8.264-5.51-13.774-13.774-13.774h-16.514V14.87c0-8.264-5.495-13.76-13.759-13.76s-13.759 5.496-13.759 13.76v16.513H185.82c-8.25 0-13.76 5.51-13.76 13.774 0 8.25 5.51 13.76 13.76 13.76h16.528v16.527z m-49.557 385.4v-16.515c0-8.264-5.51-13.759-13.773-13.759-8.25 0-13.76 5.495-13.76 13.76v16.513h-16.513c-8.264 0-13.774 5.51-13.774 13.774s5.51 13.759 13.774 13.759h16.514v16.514c0 8.264 5.51 13.773 13.759 13.773 8.264 0 13.773-5.51 13.773-13.773v-16.514h16.514c8.264 0 13.76-5.495 13.76-13.76s-5.496-13.773-13.76-13.773h-16.514z" p-id="17082" fill="#057D8D"></path></svg>