<?xml version="1.0" standalone="no"?><!DOCTYPE svg PUBLIC "-//W3C//DTD SVG 1.1//EN" "http://www.w3.org/Graphics/SVG/1.1/DTD/svg11.dtd"><svg t="1657686566413" class="icon" viewBox="0 0 1024 1024" version="1.1" xmlns="http://www.w3.org/2000/svg" p-id="28341" xmlns:xlink="http://www.w3.org/1999/xlink" width="200" height="200"><defs><style type="text/css">@font-face { font-family: feedback-iconfont; src: url("//at.alicdn.com/t/font_1031158_u69w8yhxdu.woff2?t=1630033759944") format("woff2"), url("//at.alicdn.com/t/font_1031158_u69w8yhxdu.woff?t=1630033759944") format("woff"), url("//at.alicdn.com/t/font_1031158_u69w8yhxdu.ttf?t=1630033759944") format("truetype"); }
</style></defs><path d="M122.88 245.76a122.88 122.88 0 0 1 122.88-122.88h512a40.96 40.96 0 1 1 0 81.92H245.76a40.96 40.96 0 1 0 0 81.92h532.48a122.88 122.88 0 0 1 122.88 122.88v245.76c0 135.72096-110.03904 245.76-245.76 245.76H368.64c-135.72096 0-245.76-110.03904-245.76-245.76V245.76z m593.92 409.6a61.44 61.44 0 1 0 0-122.88 61.44 61.44 0 0 0 0 122.88z" p-id="28342" fill="#FFA53E"></path></svg>