<?xml version="1.0" standalone="no"?><!DOCTYPE svg PUBLIC "-//W3C//DTD SVG 1.1//EN" "http://www.w3.org/Graphics/SVG/1.1/DTD/svg11.dtd"><svg t="1635318009896" class="icon" viewBox="0 0 1024 1024" version="1.1" xmlns="http://www.w3.org/2000/svg" p-id="5604" xmlns:xlink="http://www.w3.org/1999/xlink" width="200" height="200"><defs><style type="text/css"></style></defs><path d="M876.588522 891.069217a22.761739 22.761739 0 0 1-22.739479-22.739478c0-12.53287 10.195478-22.728348 22.739479-22.728348s22.739478 10.195478 22.739478 22.728348a22.761739 22.761739 0 0 1-22.739478 22.739478z m0-36.240695a13.512348 13.512348 0 1 0 13.501217 13.501217c0-7.43513-6.066087-13.501217-13.501217-13.501217zM412.293565 1021.217391a6.15513 6.15513 0 0 1-4.374261-1.814261l-55.796869-55.796869a6.177391 6.177391 0 1 1 8.737391-8.737391l55.808 55.808a6.177391 6.177391 0 0 1-4.374261 10.540521z" p-id="5605" fill="#F7B226"></path><path d="M356.496696 1021.217391a6.15513 6.15513 0 0 1-4.374261-10.540521l55.796869-55.808a6.188522 6.188522 0 0 1 8.748522 8.737391l-55.808 55.796869a6.121739 6.121739 0 0 1-4.36313 1.814261zM958.586435 634.201043a6.210783 6.210783 0 0 1-4.374261-1.80313l-30.886957-30.886956a6.188522 6.188522 0 0 1 8.748522-8.737392l30.886957 30.886957a6.188522 6.188522 0 0 1-4.374261 10.540521z" p-id="5606" fill="#F7B226"></path><path d="M927.710609 634.201043a6.233043 6.233043 0 0 1-4.385392-1.80313 6.210783 6.210783 0 0 1 0-8.737391l30.886957-30.886957a6.188522 6.188522 0 0 1 8.748522 8.737392l-30.886957 30.886956a6.121739 6.121739 0 0 1-4.36313 1.80313zM98.31513 759.79687a41.427478 41.427478 0 0 1-41.382956-41.371827c0-22.828522 18.565565-41.382957 41.382956-41.382956s41.371826 18.554435 41.371827 41.382956a41.405217 41.405217 0 0 1-41.371827 41.371827z m0-70.4a29.050435 29.050435 0 0 0-29.017043 29.017043 29.028174 29.028174 0 0 0 29.017043 29.005913 29.039304 29.039304 0 0 0 29.005913-29.005913 29.050435 29.050435 0 0 0-29.005913-29.017043zM639.521391 963.016348c-22.828522 0-41.382957-18.565565-41.382956-41.382957s18.554435-41.382957 41.382956-41.382956c22.817391 0 41.371826 18.565565 41.371826 41.382956s-18.554435 41.382957-41.371826 41.382957z m0-70.38887c-16.005565 0-29.017043 13.011478-29.017043 29.005913s13.022609 29.005913 29.017043 29.005913 29.017043-13.011478 29.017044-29.005913-13.011478-29.005913-29.017044-29.005913zM45.000348 402.743652A22.77287 22.77287 0 0 1 22.26087 380.004174c0-12.544 10.206609-22.739478 22.739478-22.739478s22.739478 10.195478 22.739478 22.739478a22.77287 22.77287 0 0 1-22.739478 22.739478z m0-36.240695a13.512348 13.512348 0 0 0 0 27.002434 13.501217 13.501217 0 0 0 0-27.002434zM389.042087 70.945391a6.188522 6.188522 0 0 1-4.374261-1.814261l-55.796869-55.796869a6.177391 6.177391 0 1 1 8.748521-8.737391l55.79687 55.796869a6.188522 6.188522 0 0 1-4.374261 10.551652z" p-id="5607" fill="#F7B226"></path><path d="M333.234087 70.945391a6.177391 6.177391 0 0 1-4.374261-10.551652L384.656696 4.59687a6.188522 6.188522 0 0 1 8.748521 8.737391l-55.796869 55.796869a6.166261 6.166261 0 0 1-4.374261 1.814261z" p-id="5608" fill="#F7B226"></path><path d="M716.365913 123.113739c-22.817391 0-41.371826-18.565565-41.371826-41.382956s18.554435-41.371826 41.371826-41.371826c22.806261 0 41.371826 18.554435 41.371826 41.371826s-18.565565 41.382957-41.371826 41.382956z m0-70.4a29.050435 29.050435 0 0 0-29.017043 29.005913c0 16.005565 13.022609 29.017043 29.017043 29.017044s29.005913-13.022609 29.005913-29.017044a29.028174 29.028174 0 0 0-29.005913-29.005913z" p-id="5609" fill="#F7B226"></path><path d="M960.367304 421.376c-22.828522 0-41.382957-18.565565-41.382956-41.382957s18.554435-41.382957 41.382956-41.382956c22.806261 0 41.371826 18.565565 41.371826 41.382956s-18.565565 41.382957-41.371826 41.382957z m0-70.38887c-16.005565 0-29.017043 13.011478-29.017043 29.005913s13.022609 29.005913 29.017043 29.005914c15.994435 0 28.994783-13.011478 28.994783-29.005914s-13.000348-29.005913-28.994783-29.005913z" p-id="5610" fill="#F7B226"></path><path d="M724.780522 299.976348l-0.523131-0.278261v-0.26713A299.01913 299.01913 0 0 0 512 211.567304c-82.576696 0-157.562435 33.435826-212.001391 87.585392l-0.534261 0.545391C245.314783 354.114783 211.478261 428.844522 211.478261 511.75513a299.50887 299.50887 0 0 0 87.730087 212.057044l0.534261 0.345043c54.416696 54.349913 129.146435 88.264348 212.257391 88.264348 82.843826 0 157.829565-33.647304 211.97913-87.986087l0.267131-0.26713A299.208348 299.208348 0 0 0 812.521739 511.75513c0-82.565565-33.580522-157.362087-87.741217-211.778782z m-30.308174 394.473739a256.601043 256.601043 0 0 1-182.461218 75.53113 257.090783 257.090783 0 0 1-182.483478-75.53113c-46.83687-46.692174-75.542261-111.337739-75.542261-182.694957a256.111304 256.111304 0 0 1 75.542261-182.260869A256.890435 256.890435 0 0 1 512 253.751652c71.457391 0 135.880348 28.961391 182.461217 75.742609a256.089043 256.089043 0 0 1 75.542261 182.260869c0.01113 71.357217-28.68313 135.991652-75.53113 182.694957z m-27.603478-337.686261A219.002435 219.002435 0 0 0 512 292.797217c-60.638609 0-115.066435 24.642783-154.88 63.966609a219.336348 219.336348 0 0 0-64.166957 154.991304c0 60.727652 24.642783 115.344696 64.166957 155.002435 39.813565 39.657739 94.230261 64.166957 154.88 64.166957a217.733565 217.733565 0 0 0 154.86887-64.166957 217.633391 217.633391 0 0 0 64.166956-155.002435c0-60.371478-24.375652-115.333565-64.166956-154.991304z m-17.864348 291.995826c-35.205565 35.127652-83.389217 56.787478-136.993392 56.787478-53.615304 0-102.077217-21.648696-136.72626-56.787478-35.472696-34.860522-56.865391-83.533913-56.865392-137.004522 0-53.125565 21.392696-101.787826 56.865392-136.926608 34.649043-34.849391 83.110957-56.453565 136.72626-56.453565 53.604174 0 101.787826 21.593043 136.993392 56.453565a194.181565 194.181565 0 0 1 56.576 136.926608c0 53.470609-21.659826 102.144-56.576 137.004522zM543.677217 431.415652c3.250087 0 7.045565 1.691826 8.94887 3.929044 2.437565 2.370783 4.051478 5.821217 4.051478 9.138087 0 7.245913 5.687652 12.78887 13.000348 12.788869a12.577391 12.577391 0 0 0 12.443826-12.788869c0-10.351304-4.61913-20.090435-11.364174-27.002435a38.622609 38.622609 0 0 0-27.091478-11.442087h-18.93287v-10.974609c0-7.034435-5.698783-12.722087-12.733217-12.722087-7.045565 0-13.000348 5.687652-13.000348 12.722087v10.974609h-18.676869c-10.573913 0-20.034783 4.396522-27.080348 11.442087-6.756174 6.912-11.364174 16.65113-11.364174 27.002435v41.627826c0 10.48487 4.608 20.101565 11.364174 27.136a39.279304 39.279304 0 0 0 25.989565 11.308521h19.767652v67.684174h-18.676869c-3.517217 0-6.778435-1.491478-9.216-3.517217-2.159304-2.771478-3.773217-5.888-3.773218-9.527652 0-7.045565-5.687652-12.733217-12.454956-12.733218-7.323826 0-13.000348 5.687652-13.000348 12.733218 0 10.551652 4.608 20.290783 11.364174 27.191652 7.301565 6.912 16.506435 11.442087 27.080348 11.442087h18.676869v10.841043c0 7.168 5.954783 12.588522 13.000348 12.588522 7.034435 0 12.733217-5.420522 12.733217-12.588522v-10.841043h18.93287c10.562783 0 20.045913-4.530087 27.091478-11.442087a38.177391 38.177391 0 0 0 11.364174-27.191652v-41.293913c0-10.496-4.61913-20.379826-11.364174-27.280696-7.045565-6.767304-15.994435-10.974609-25.722435-11.308522l-1.369043-0.133565h-18.93287V431.415652h18.944z m-44.666434 67.762087h-18.67687c-3.517217 0-6.778435-1.480348-9.216-3.929043a13.979826 13.979826 0 0 1-3.773217-9.138087v-41.627826c0-3.305739 1.625043-6.767304 3.773217-9.138087 2.170435-2.226087 5.698783-3.929043 9.216-3.929044h18.67687v67.762087z m44.666434 25.377391c3.250087 0 6.500174 1.625043 8.94887 3.929044 2.437565 2.515478 4.051478 5.821217 4.051478 9.416348v41.293913c0 3.639652-1.625043 6.756174-4.051478 9.527652-1.903304 2.03687-5.698783 3.517217-8.94887 3.517217h-18.932869v-67.684174h18.932869z" p-id="5611" fill="#F7B226"></path></svg>