<?xml version="1.0" standalone="no"?><!DOCTYPE svg PUBLIC "-//W3C//DTD SVG 1.1//EN" "http://www.w3.org/Graphics/SVG/1.1/DTD/svg11.dtd"><svg t="1657768207264" class="icon" viewBox="0 0 1024 1024" version="1.1" xmlns="http://www.w3.org/2000/svg" p-id="18557" xmlns:xlink="http://www.w3.org/1999/xlink" width="200" height="200"><defs><style type="text/css">@font-face { font-family: feedback-iconfont; src: url("//at.alicdn.com/t/font_1031158_u69w8yhxdu.woff2?t=1630033759944") format("woff2"), url("//at.alicdn.com/t/font_1031158_u69w8yhxdu.woff?t=1630033759944") format("woff"), url("//at.alicdn.com/t/font_1031158_u69w8yhxdu.ttf?t=1630033759944") format("truetype"); }
</style></defs><path d="M17.32377 384.32488C89.587313 108.182022 367.976854-56.252376 637.891568 17.717508c257.373107 70.585641 439.695647 324.176359 371.527322 584.535562-20.760483 79.28798-71.410373 146.887525-140.858453 187.925027a296.277683 296.277683 0 0 1-229.50287 30.884772l-87.250905-23.888774a29.690334 29.690334 0 0 0-36.401942 21.443019c-1.905414 6.967559-1.137561 14.390143 2.132926 20.788922l0.199073 0.483463 0.398147 0.824731 0.255951 0.483464c6.540974 13.935118 19.366971 47.379403 8.531705 88.84349a125.871091 125.871091 0 0 1-57.532132 76.842225 120.865824 120.865824 0 0 1-93.791879 12.570045C105.712236 945.398253-54.968212 660.553056 17.32377 384.32488z m692.347877 120.97958c-3.156731 11.603119-1.507268 24.002531 4.607121 34.411211 6.142828 10.40868 16.21024 18.001898 28.040871 21.13019l24.286921 6.398779c15.92585 4.180536 32.932382-0.28439 44.592379-11.745314 11.659997-11.460924 16.21024-28.154627 11.944388-43.796087a45.786818 45.786818 0 0 0-32.619553-32.050773l-24.286921-6.398779a46.924379 46.924379 0 0 0-35.036869 4.521804c-10.607753 6.000633-18.343166 15.92585-21.528337 27.528969z m-92.31305-226.658968c-3.18517 11.603119-1.507268 23.974092 4.607121 34.411211 6.114389 10.40868 16.21024 18.001898 28.040871 21.101751l24.258482 6.398779c24.628189 6.484096 49.967353-7.877608 56.565205-32.050773a45.274916 45.274916 0 0 0-32.647992-55.541401l-24.28692-6.398779a46.924379 46.924379 0 0 0-35.03687 4.550243c-10.607753 5.972194-18.343166 15.897411-21.499897 27.50053zM385.324655 204.192144c-3.18517 11.659997-1.535707 24.03097 4.578682 34.43965 6.142828 10.437119 16.21024 18.030337 28.06931 21.158629l24.28692 6.341901c24.628189 6.484096 49.938914-7.877608 56.536767-32.050772a45.274916 45.274916 0 0 0-32.619553-55.541401l-24.286921-6.398779a46.924379 46.924379 0 0 0-35.036869 4.550243c-10.607753 5.972194-18.343166 15.897411-21.528336 27.500529z m-184.65454 181.355614c-3.18517 11.631558-1.535707 24.002531 4.578682 34.411211 6.114389 10.437119 16.21024 18.058776 28.06931 21.158629l24.258482 6.37034c15.92585 4.180536 32.932382-0.28439 44.620818-11.745314 11.659997-11.460924 16.21024-28.154627 11.944387-43.796087a45.786818 45.786818 0 0 0-32.647992-32.050773l-24.28692-6.398779a46.924379 46.924379 0 0 0-35.03687 4.521804c-10.607753 6.000633-18.343166 15.92585-21.499897 27.528969z" p-id="18558" fill="#FC4702"></path></svg>